<svg width="42" height="19" viewBox="0 0 42 19" fill="none" xmlns="http://www.w3.org/2000/svg">
<path d="M0 9.09672C0 7.27314 0.338466 5.6722 1.0154 4.29391C1.71348 2.91562 2.65484 1.85539 3.83947 1.11324C5.02411 0.371079 6.34624 0 7.80587 0C9.05397 0 10.1434 0.254454 11.0742 0.763361C12.0261 1.27227 12.7559 1.94021 13.2636 2.76718V0.254454H18.6897V18.0026H13.2636V15.4899C12.7348 16.3168 11.9944 16.9848 11.0425 17.4937C10.1117 18.0026 9.02224 18.2571 7.77414 18.2571C6.33566 18.2571 5.02411 17.886 3.83947 17.1438C2.65484 16.3805 1.71348 15.3096 1.0154 13.9313C0.338466 12.5318 0 10.9203 0 9.09672ZM13.2636 9.12853C13.2636 7.77144 12.8829 6.70061 12.1213 5.91605C11.3809 5.13148 10.4713 4.7392 9.39243 4.7392C8.31357 4.7392 7.39337 5.13148 6.63182 5.91605C5.89142 6.67941 5.52123 7.73963 5.52123 9.09672C5.52123 10.4538 5.89142 11.5352 6.63182 12.341C7.39337 13.1256 8.31357 13.5179 9.39243 13.5179C10.4713 13.5179 11.3809 13.1256 12.1213 12.341C12.8829 11.5564 13.2636 10.4856 13.2636 9.12853Z" fill="black"/>
<path d="M28.0412 3.21248C28.6758 2.23707 29.4691 1.47371 30.421 0.922396C31.373 0.349875 32.4307 0.0636145 33.5942 0.0636145V5.82063H32.1028C30.7489 5.82063 29.7335 6.11749 29.0566 6.71122C28.3797 7.28374 28.0412 8.30155 28.0412 9.76466V18.0026H22.6152V0.254454H28.0412V3.21248Z" fill="black"/>
<path d="M38.7262 18.2571C37.7742 18.2571 36.9915 17.9814 36.3781 17.4301C35.7858 16.8576 35.4896 16.1578 35.4896 15.3308C35.4896 14.4827 35.7858 13.7723 36.3781 13.1998C36.9915 12.6273 37.7742 12.341 38.7262 12.341C39.657 12.341 40.4185 12.6273 41.0108 13.1998C41.6243 13.7723 41.931 14.4827 41.931 15.3308C41.931 16.1578 41.6243 16.8576 41.0108 17.4301C40.4185 17.9814 39.657 18.2571 38.7262 18.2571Z" fill="#EF4444"/>
</svg>
